<?xml version="1.0" standalone="no"?>
<!DOCTYPE svg PUBLIC "-//W3C//DTD SVG 20010904//EN"
 "http://www.w3.org/TR/2001/REC-SVG-20010904/DTD/svg10.dtd">
<svg version="1.0" xmlns="http://www.w3.org/2000/svg"
 width="225.000000pt" height="225.000000pt" viewBox="0 0 225.000000 225.000000"
 preserveAspectRatio="xMidYMid meet">
<metadata>
Created by potrace 1.10, written by Peter Selinger 2001-2011
</metadata>
<g transform="translate(0.000000,225.000000) scale(0.100000,-0.100000)"
fill="#000000" stroke="none">
<path d="M925 2063 c-54 -11 -157 -45 -152 -49 5 -5 176 42 185 51 6 5 -2 5
-33 -2z"/>
<path d="M1201 2066 c2 -2 36 -6 74 -9 42 -3 62 -2 50 3 -19 8 -133 14 -124 6z"/>
<path d="M1003 2033 c-24 -2 -43 -9 -43 -15 0 -7 23 -8 73 -3 143 14 275 7
379 -22 53 -15 95 -31 92 -35 -3 -4 0 -8 5 -8 6 0 11 5 11 12 0 7 7 5 18 -5 9
-8 31 -19 47 -23 17 -4 42 -15 57 -26 15 -10 31 -17 36 -16 6 2 19 -8 31 -21
12 -13 21 -21 21 -17 0 4 18 -12 39 -36 22 -23 42 -40 46 -36 12 12 -102 114
-163 145 -60 31 -149 61 -262 89 -57 14 -312 26 -387 17z"/>
<path d="M861 2005 c-24 -8 -47 -13 -50 -13 -3 1 -24 -6 -46 -16 -22 -10 -58
-25 -80 -34 -22 -9 -70 -40 -107 -69 -70 -55 -86 -73 -69 -73 6 0 16 9 23 20
7 11 17 20 22 20 5 0 31 18 58 41 26 22 52 38 57 35 5 -4 17 1 25 10 9 9 23
13 32 10 8 -3 13 -2 10 3 -7 11 33 26 133 51 40 11 76 21 79 24 10 11 -42 5
-87 -9z"/>
<path d="M508 1873 c-71 -68 -151 -173 -201 -263 -57 -103 -83 -180 -127 -375
-5 -22 -11 -79 -14 -125 l-5 -85 13 75 c7 41 14 64 15 50 11 -170 48 -422 66
-447 11 -14 12 -14 18 6 3 11 2 19 -3 16 -10 -6 -58 262 -58 330 0 28 -12 137
-17 152 -5 15 22 142 33 157 5 6 13 33 17 60 5 35 9 45 16 35 7 -11 9 -9 9 8
0 29 29 103 49 127 9 10 14 20 12 23 -2 3 1 12 7 22 7 9 26 38 44 65 17 26 70
88 117 137 96 100 102 120 9 32z"/>
<path d="M434 1737 c-86 -110 -99 -134 -36 -67 57 60 99 121 84 120 -4 -1 -25
-24 -48 -53z"/>
<path d="M1793 1753 c-12 -2 -35 -16 -52 -31 -16 -15 -42 -34 -57 -42 -17 -9
-30 -26 -32 -40 -2 -13 -15 -32 -28 -43 -29 -23 -31 -60 -4 -87 24 -24 77 -26
102 -3 15 13 23 14 43 5 14 -6 32 -9 41 -5 10 4 22 0 28 -8 18 -25 45 -30 82
-14 22 9 51 12 77 9 32 -4 50 0 75 15 37 24 42 54 16 103 -15 28 -19 30 -58
25 -41 -6 -43 -5 -55 29 -21 59 -109 102 -178 87z m114 -43 c18 -10 39 -32 47
-48 15 -29 18 -115 4 -106 -4 3 -5 -1 -2 -9 6 -18 -41 -57 -68 -57 -26 0 -71
47 -64 66 4 10 1 14 -6 11 -7 -2 -12 -14 -11 -26 2 -11 0 -21 -3 -21 -16 0
-45 24 -58 48 l-15 27 -1 -32 c0 -36 -21 -53 -65 -53 -33 0 -52 37 -36 69 14
26 27 27 40 4 5 -10 13 -15 17 -11 4 4 -1 19 -10 33 -13 20 -14 28 -4 45 17
27 41 36 34 12 -4 -10 1 -27 9 -38 14 -18 14 -17 9 13 -5 27 -1 37 24 63 26
25 38 30 79 30 30 0 60 -7 80 -20z m169 -125 c9 -35 0 -51 -36 -70 -43 -22
-69 -7 -65 40 4 42 11 54 39 65 28 10 54 -5 62 -35z"/>
<path d="M1810 1678 c-20 -22 -29 -85 -10 -73 6 3 7 -1 4 -9 -3 -9 -1 -16 5
-16 6 0 11 12 11 26 0 14 -4 22 -10 19 -6 -3 -7 1 -4 9 9 23 23 19 30 -8 7
-30 29 -40 55 -26 20 11 27 50 9 50 -5 0 -10 -10 -10 -21 0 -18 -2 -19 -15 -9
-8 7 -15 9 -15 4 -1 -13 -30 28 -30 41 0 6 12 16 28 22 l27 11 -27 1 c-16 1
-36 -8 -48 -21z"/>
<path d="M962 1691 c-145 -42 -291 -148 -360 -264 -79 -130 -107 -289 -77
-431 40 -193 157 -341 339 -430 291 -141 651 -15 791 279 42 89 58 166 58 280
0 164 -52 287 -172 406 -83 83 -176 136 -286 164 -79 20 -214 18 -293 -4z
m242 -14 c18 4 19 3 6 -7 -12 -9 -11 -10 7 -5 28 8 75 -4 66 -18 -3 -6 -1 -7
6 -3 6 4 19 5 29 2 14 -5 16 -16 14 -65 -2 -36 -9 -65 -18 -72 -11 -9 -14 -7
-14 14 0 14 5 29 10 32 6 3 10 17 10 31 0 32 -29 32 -52 0 -16 -23 -16 -25 2
-46 23 -26 25 -36 9 -46 -6 -3 -24 6 -40 22 -34 32 -41 28 -46 -26 -4 -35 -1
-40 21 -46 14 -3 24 -10 21 -14 -3 -5 0 -12 6 -15 7 -5 2 -12 -13 -19 -24 -13
-26 -21 -13 -70 6 -23 5 -27 -5 -21 -9 5 -11 4 -6 -4 9 -14 -12 -43 -25 -35
-5 3 -8 2 -7 -3 1 -4 -8 -30 -22 -58 -30 -63 -30 -103 1 -149 25 -37 97 -75
108 -58 7 11 86 52 101 52 5 0 10 -13 10 -28 0 -17 10 -38 25 -52 22 -21 37
-68 17 -56 -12 7 -12 -34 0 -75 9 -30 7 -48 -11 -100 -27 -79 -27 -79 7 -79
20 0 45 15 85 51 46 41 58 59 63 91 4 21 18 56 32 76 18 27 25 49 23 81 -1 34
5 52 26 80 24 31 28 46 30 121 l3 85 -26 -39 -27 -39 -15 29 c-8 16 -25 39
-38 52 -13 13 -24 33 -24 45 0 35 -14 48 -55 53 -22 3 -41 6 -42 8 -10 10 32
36 58 36 38 0 37 13 -3 28 -53 18 -74 10 -70 -27 4 -37 -12 -38 -41 -3 -10 12
-28 22 -39 22 -16 0 -18 3 -9 13 11 14 5 27 -12 27 -5 0 -7 -7 -3 -15 3 -8 1
-15 -5 -15 -5 0 -15 -11 -21 -25 -9 -19 -14 -22 -21 -13 -6 9 -7 8 -3 -4 6
-19 -20 -51 -35 -43 -15 10 -10 45 7 52 10 4 14 13 10 28 -7 26 16 59 54 78
21 11 26 22 32 71 4 33 10 61 12 63 11 12 115 -58 173 -114 53 -53 63 -68 63
-97 0 -35 15 -57 51 -76 10 -6 19 -15 19 -21 0 -6 -7 -6 -19 1 -24 12 -35 -1
-26 -30 7 -22 13 -24 33 -11 10 6 8 10 -9 14 -13 4 -20 9 -17 12 9 9 50 -14
43 -24 -3 -5 2 -25 10 -45 20 -47 19 -166 -2 -261 -12 -56 -19 -72 -25 -60
-16 28 -62 -50 -62 -104 1 -41 -3 -49 -61 -106 -115 -116 -243 -169 -410 -168
-123 0 -177 14 -204 52 -27 37 -26 43 5 80 14 17 30 46 35 65 7 27 17 37 43
46 28 9 32 14 28 35 -2 14 1 31 7 39 8 10 8 23 -1 52 -11 33 -20 41 -65 59
-42 16 -59 30 -82 67 -16 25 -39 49 -50 53 -12 3 -19 11 -15 16 3 6 12 8 20 5
11 -4 11 -2 2 14 -13 20 -13 20 -20 0 -8 -23 -22 -25 -67 -9 -27 9 -35 8 -51
-6 -22 -20 -27 -14 -32 40 -2 25 -7 29 -25 27 -26 -4 -28 1 -13 29 12 21 36
24 60 9 13 -8 13 -11 1 -19 -19 -12 -5 -31 24 -31 30 0 39 14 20 30 -8 7 -15
26 -15 43 0 25 11 42 56 83 31 29 62 50 69 48 7 -3 15 2 18 10 4 11 1 13 -10
9 -13 -5 -14 -3 -4 15 15 28 31 28 31 2 0 -11 6 -20 13 -20 21 0 40 17 33 29
-4 6 -9 21 -11 33 -3 13 -16 32 -30 43 -23 19 -23 21 -7 32 14 9 15 13 5 24
-22 23 -15 39 18 39 24 0 29 -3 25 -17 -3 -10 -2 -31 2 -48 7 -23 14 -30 33
-30 18 0 26 7 34 33 5 17 13 32 17 32 4 0 15 14 23 31 15 29 15 32 -1 50 -9
10 -14 19 -9 19 4 0 2 7 -6 16 -11 14 -6 15 54 13 37 -1 70 1 73 4 4 4 14 3
22 -2 8 -5 24 -6 36 -4z m-202 -17 c6 0 8 -3 5 -7 -4 -3 0 -14 8 -23 14 -16
14 -19 -1 -34 -9 -10 -24 -14 -33 -11 -13 5 -14 4 -3 -6 16 -17 15 -47 -2 -64
-22 -22 -40 6 -32 49 6 32 5 34 -23 38 -17 2 -43 -1 -58 -7 -47 -20 -85 -27
-78 -15 15 24 170 92 193 84 8 -2 19 -4 24 -4z m308 -68 c0 -15 -28 -47 -35
-40 -8 8 13 48 25 48 6 0 10 -4 10 -8z m-476 -28 c20 -8 21 -20 1 -22 -8 -1
-22 -3 -30 -4 -8 -1 -11 -6 -8 -11 4 -7 -1 -8 -13 -3 -10 4 -16 4 -12 1 3 -4
-3 -16 -14 -27 -13 -13 -16 -23 -10 -31 6 -7 12 -22 14 -35 5 -37 21 -30 46
18 25 49 24 49 65 32 33 -14 31 -35 -3 -40 -12 -2 -32 -13 -44 -24 -11 -12
-15 -17 -8 -13 11 6 12 3 2 -14 -6 -12 -22 -26 -35 -31 -13 -5 -27 -15 -31
-22 -6 -10 -4 -10 12 1 10 7 -1 -4 -25 -26 -36 -33 -43 -44 -39 -66 6 -32 8
-31 -28 -12 -20 10 -32 11 -41 4 -6 -6 -16 -9 -20 -6 -4 3 -8 -12 -8 -34 0
-36 2 -39 29 -39 21 0 27 -4 22 -16 -3 -8 1 -29 10 -46 23 -45 10 -45 -23 -1
-17 23 -35 37 -44 35 -9 -2 -24 5 -34 14 -29 29 -15 121 33 218 49 99 137 193
185 199 18 2 33 5 34 5 1 1 8 -1 17 -4z m-1 -59 c-11 -8 -26 -28 -33 -45 -15
-36 -25 -38 -34 -7 -5 17 2 29 31 54 24 21 41 29 48 22 6 -6 2 -14 -12 -24z
m427 -32 c0 -8 -13 -13 -31 -13 -26 0 -30 3 -24 18 4 9 8 22 8 29 1 16 46 -18
47 -34z m130 -103 c5 -10 6 -21 2 -25 -4 -4 4 -5 17 -2 25 6 73 -11 66 -24 -3
-4 -15 -5 -28 -3 l-22 5 23 -12 c18 -10 25 -9 41 5 19 17 20 17 30 -3 6 -11
11 -29 11 -41 0 -11 11 -33 25 -48 14 -15 31 -39 37 -54 12 -26 14 -26 35 -12
13 8 23 11 24 7 4 -32 -6 -73 -26 -103 -39 -58 -50 -89 -37 -102 19 -19 14
-45 -14 -75 -17 -19 -24 -22 -20 -10 3 10 2 15 -3 12 -6 -3 -7 -20 -4 -39 3
-20 -1 -45 -11 -64 -18 -35 -96 -102 -119 -102 -14 0 -14 7 3 65 15 52 16 71
8 100 -9 26 -8 41 1 59 14 25 5 54 -26 84 -7 7 -13 26 -13 42 0 35 -40 49 -76
25 -28 -18 -38 -19 -28 -3 4 7 3 8 -5 4 -6 -4 -9 -11 -6 -16 8 -13 -23 -20
-48 -11 -29 11 -77 67 -77 88 0 74 80 196 139 213 49 14 54 13 74 -10 19 -22
42 -26 53 -8 5 8 2 9 -9 5 -10 -4 -24 2 -36 15 -14 15 -28 19 -50 16 -34 -5
-35 -4 -21 22 9 17 12 17 41 3 16 -8 33 -12 36 -9 3 3 -6 10 -21 15 -33 13
-34 20 -1 13 14 -2 30 -12 35 -22z m-806 -250 c21 -7 40 -23 52 -45 10 -18 22
-32 26 -29 13 8 22 -26 9 -39 -6 -6 -11 -31 -11 -55 0 -38 6 -49 49 -95 43
-46 52 -62 65 -122 8 -39 18 -79 22 -90 7 -18 6 -19 -12 -5 -100 78 -179 184
-213 287 -21 62 -42 209 -32 219 3 3 7 1 9 -5 2 -5 18 -15 36 -21z m221 -36
c11 -2 37 -31 57 -63 30 -47 44 -61 70 -66 60 -13 78 -31 78 -78 0 -62 -9 -85
-35 -91 -35 -9 -99 -130 -92 -173 7 -38 5 -39 -27 -18 -29 19 -40 45 -61 145
-12 55 -24 84 -47 110 -80 91 -82 95 -67 148 7 26 12 51 11 55 -1 4 3 17 8 28
11 20 29 20 105 3z m819 -250 c-10 -18 -21 -31 -25 -28 -9 5 4 52 22 83 l14
22 3 -22 c2 -12 -4 -37 -14 -55z"/>
<path d="M1098 1619 c-11 -6 -18 -22 -18 -38 0 -23 5 -30 28 -34 15 -3 32 -1
37 4 7 7 4 8 -7 4 -17 -7 -17 -5 -3 21 8 16 15 35 15 42 0 14 -28 15 -52 1z
m35 -16 c-11 -30 -43 -45 -43 -20 0 17 20 37 37 37 8 0 10 -7 6 -17z"/>
<path d="M1154 1506 c-7 -7 -10 -25 -7 -40 9 -43 18 -38 18 10 0 24 0 44 0 44
0 -1 -5 -7 -11 -14z"/>
<path d="M745 1240 c-4 -6 1 -22 10 -36 9 -13 13 -29 10 -33 -10 -17 6 -39 26
-34 25 7 25 39 -1 46 -11 3 -20 9 -19 14 4 21 -2 34 -13 27 -8 -5 -9 -2 -5 9
7 19 2 23 -8 7z"/>
<path d="M915 1045 c11 -8 26 -19 33 -25 9 -8 12 -7 12 1 0 8 16 10 56 6 48
-5 115 6 103 17 -2 2 -41 0 -86 -3 -59 -4 -87 -3 -100 6 -9 7 -22 13 -27 13
-6 0 -2 -7 9 -15z"/>
<path d="M715 1478 c-53 -60 -74 -96 -60 -102 9 -3 12 0 8 10 -3 8 1 14 11 14
9 0 15 3 15 8 -3 19 2 25 11 12 8 -11 9 -7 4 14 -6 25 -4 28 12 24 15 -4 19 1
19 19 0 12 0 23 0 23 0 0 -9 -10 -20 -22z"/>
<path d="M667 813 c-9 -14 18 -42 31 -34 9 5 7 12 -7 25 -10 9 -21 14 -24 9z"/>
<path d="M2021 1428 c4 -24 6 -52 5 -63 -2 -11 -1 -13 2 -5 3 8 11 -21 18 -65
11 -75 12 -245 1 -395 l-4 -65 14 55 c32 120 9 536 -32 570 -10 8 -11 1 -4
-32z"/>
<path d="M2016 910 c-3 -23 -15 -60 -25 -83 -11 -23 -27 -67 -37 -97 -11 -30
-24 -59 -30 -65 -6 -5 -18 -25 -25 -42 -8 -18 -17 -33 -21 -33 -4 0 -17 -18
-28 -39 -11 -22 -28 -46 -37 -53 -26 -19 -96 -108 -85 -108 17 0 110 109 160
187 78 120 165 344 143 366 -4 4 -11 -10 -15 -33z"/>
<path d="M230 648 c-44 -30 -108 -120 -116 -165 -12 -63 42 -133 102 -133 12
0 27 -7 35 -16 34 -42 139 -61 189 -34 14 8 25 8 29 2 12 -18 70 -42 104 -42
19 0 46 10 65 23 29 22 37 23 92 15 63 -8 85 -3 123 30 32 28 15 125 -23 137
-10 3 -28 15 -41 26 -19 16 -33 20 -63 16 -30 -4 -46 -1 -64 14 -14 10 -38 19
-53 19 -20 0 -29 5 -29 15 0 30 -48 67 -83 64 -18 -1 -51 7 -76 20 -25 13 -70
25 -100 28 -47 4 -61 1 -91 -19z m188 -22 c18 -9 41 -33 52 -54 l21 -37 -5 33
c-4 24 -2 32 10 32 28 0 52 -19 63 -51 9 -27 8 -37 -10 -66 -12 -19 -19 -36
-16 -39 7 -7 47 46 47 62 0 21 53 17 78 -6 14 -13 22 -33 22 -53 1 -26 2 -29
11 -15 5 10 9 26 7 35 -4 24 36 29 68 9 24 -16 35 -66 14 -66 -5 0 -10 -5 -10
-12 0 -6 9 -3 20 7 11 10 20 28 20 39 1 20 1 20 20 -3 24 -28 26 -78 3 -103
-13 -14 -31 -18 -85 -18 -37 0 -68 1 -68 3 0 1 4 17 9 35 6 20 6 32 0 32 -5 0
-9 -5 -9 -11 0 -23 -44 -72 -77 -85 -26 -11 -43 -12 -71 -4 -62 17 -66 23 -43
61 22 35 29 109 11 109 -5 0 -10 -14 -10 -31 0 -66 -57 -119 -127 -119 -50 0
-82 18 -111 60 -42 61 -14 160 45 160 12 0 23 5 23 10 0 13 -36 13 -61 0 -39
-21 -61 -95 -45 -148 11 -32 -19 -29 -55 7 -42 42 -39 83 11 159 50 75 86 94
161 89 31 -3 70 -12 87 -21z"/>
<path d="M268 578 c-16 -5 -28 -14 -28 -20 0 -7 4 -7 13 0 31 26 107 18 143
-15 36 -34 39 -60 11 -84 -29 -25 -69 -24 -90 2 -22 25 -33 19 -17 -10 22 -43
150 -14 150 34 0 30 -24 63 -60 84 -40 23 -78 25 -122 9z"/>
<path d="M1625 386 c-10 -16 -22 -22 -35 -19 -12 3 -22 -3 -30 -16 -13 -26 -4
-61 16 -61 8 0 26 -7 39 -16 23 -15 27 -15 62 7 64 38 67 56 23 99 -37 36 -55
38 -75 6z m63 -21 c12 -14 22 -29 22 -35 0 -16 -68 -43 -87 -35 -10 5 -25 9
-33 9 -25 2 -18 41 8 44 12 2 27 12 32 23 14 26 32 24 58 -6z"/>
<path d="M1524 281 c3 -4 -27 -16 -67 -26 -40 -10 -78 -20 -86 -23 -9 -3 -12
-1 -7 6 5 8 2 10 -8 6 -9 -3 -16 -11 -16 -16 0 -6 -9 -8 -20 -5 -10 3 -21 0
-23 -6 -2 -7 -56 -11 -159 -12 -86 0 -154 3 -151 8 3 4 -6 7 -19 6 -12 -1 -39
-1 -58 0 -33 3 -34 3 -10 12 l25 8 -25 -2 c-14 -1 -31 2 -37 6 -7 5 -22 10
-34 12 -11 2 -30 7 -42 11 -48 13 17 -23 83 -47 59 -21 81 -23 240 -24 159 0
186 3 290 29 63 16 126 34 139 41 23 12 23 12 2 18 -11 3 -19 2 -17 -2z"/>
</g>
</svg>
